<svg xmlns="http://www.w3.org/2000/svg" viewBox="0 0 482.2 152.0" width="482.2" height="152.0"><title>Boss.</title><g transform="translate(-2.9 150.0)"><path fill="#121212" d="M2.9000000000000004 0.0V-3.9000000000000004H75.0Q82.60000000000001 -3.9000000000000004 87.95000000000002 -8.45Q93.30000000000001 -13.0 96.15 -21.55Q99.0 -30.1 99.0 -42.0Q99.0 -53.900000000000006 96.15 -61.150000000000006Q93.30000000000001 -68.4 87.95000000000002 -71.7Q82.60000000000001 -75.0 75.0 -75.0H55.0V-77.60000000000001H85.0Q102.10000000000001 -77.60000000000001 115.65 -73.95Q129.20000000000002 -70.3 137.10000000000002 -61.65Q145.0 -53.0 145.0 -38.0Q145.0 -17.0 129.35 -8.5Q113.7 0.0 85.0 0.0ZM21.0 -2.1V-147.9H64.0V-2.1ZM55.0 -76.4V-79.0H73.0Q79.60000000000001 -79.0 84.55000000000001 -82.0Q89.5 -85.0 92.25 -92.0Q95.0 -99.0 95.0 -110.9Q95.0 -122.80000000000001 92.25 -130.60000000000002Q89.5 -138.4 84.55000000000001 -142.25Q79.60000000000001 -146.1 73.0 -146.1H2.9000000000000004V-150.0H81.10000000000001Q108.2 -150.0 123.65 -141.25Q139.1 -132.5 139.1 -113.0Q139.1 -95.0 124.45 -85.7Q109.80000000000001 -76.4 81.10000000000001 -76.4ZM204.10000000000002 2.0Q188.0 2.0 176.4 -4.6000000000000005Q164.8 -11.200000000000001 158.55 -22.1Q152.3 -33.0 152.3 -46.0Q152.3 -59.0 158.55 -69.9Q164.8 -80.80000000000001 176.4 -87.4Q188.0 -94.0 204.10000000000002 -94.0Q220.20000000000002 -94.0 231.8 -87.4Q243.40000000000003 -80.80000000000001 249.65000000000003 -69.9Q255.90000000000003 -59.0 255.90000000000003 -46.0Q255.90000000000003 -33.0 249.65000000000003 -22.1Q243.40000000000003 -11.200000000000001 231.8 -4.6000000000000005Q220.20000000000002 2.0 204.10000000000002 2.0ZM204.10000000000002 -1.9000000000000001Q207.0 -1.9000000000000001 209.35000000000002 -4.75Q211.70000000000002 -7.6000000000000005 213.40000000000003 -13.15Q215.10000000000002 -18.7 216.00000000000003 -26.950000000000003Q216.90000000000003 -35.2 216.90000000000003 -46.0Q216.90000000000003 -56.800000000000004 216.00000000000003 -65.05Q215.10000000000002 -73.3 213.40000000000003 -78.85Q211.70000000000002 -84.4 209.35000000000002 -87.25Q207.0 -90.10000000000001 204.10000000000002 -90.10000000000001Q201.20000000000002 -90.10000000000001 198.85000000000002 -87.25Q196.5 -84.4 194.8 -78.85Q193.10000000000002 -73.3 192.20000000000002 -65.05Q191.3 -56.800000000000004 191.3 -46.0Q191.3 -35.2 192.20000000000002 -26.950000000000003Q193.10000000000002 -18.7 194.8 -13.15Q196.5 -7.6000000000000005 198.85000000000002 -4.75Q201.20000000000002 -1.9000000000000001 204.10000000000002 -1.9000000000000001ZM262.3 2.0V-32.0H266.3Q271.2 -21.900000000000002 276.75 -15.25Q282.3 -8.6 289.15 -5.35Q296.0 -2.1 304.6 -2.1Q310.6 -2.1 314.95000000000005 -3.45Q319.3 -4.800000000000001 321.65 -7.15Q324.0 -9.5 324.0 -12.5Q324.0 -16.6 319.70000000000005 -19.150000000000002Q315.40000000000003 -21.700000000000003 308.55000000000007 -23.75Q301.70000000000005 -25.8 294.1 -28.450000000000003Q286.5 -31.1 279.65 -35.25Q272.8 -39.400000000000006 268.5 -46.050000000000004Q264.2 -52.7 264.2 -63.0Q264.2 -72.4 268.75 -79.30000000000001Q273.3 -86.2 281.05 -90.0Q288.8 -93.80000000000001 298.20000000000005 -93.80000000000001Q305.1 -93.80000000000001 310.6 -91.60000000000001Q316.1 -89.4 320.40000000000003 -85.80000000000001L333.3 -94.0H336.70000000000005V-66.0H332.8Q328.20000000000005 -72.5 323.5 -77.85Q318.8 -83.2 312.8 -86.4Q306.8 -89.60000000000001 298.3 -89.60000000000001Q294.1 -89.60000000000001 290.65 -88.25Q287.2 -86.9 285.15 -84.65Q283.1 -82.4 283.1 -79.60000000000001Q283.1 -75.4 287.5 -72.80000000000001Q291.90000000000003 -70.2 298.80000000000007 -68.1Q305.70000000000005 -66.0 313.5 -63.5Q321.3 -61.0 328.20000000000005 -57.05Q335.1 -53.1 339.5 -46.7Q343.90000000000003 -40.300000000000004 343.90000000000003 -30.400000000000002Q343.90000000000003 -18.5 337.95000000000005 -11.4Q332.0 -4.3 323.15 -1.15Q314.3 2.0 305.6 2.0Q297.40000000000003 2.0 290.70000000000005 -0.55Q284.0 -3.1 278.5 -8.0L265.7 2.0ZM349.20000000000005 2.0V-32.0H353.20000000000005Q358.1 -21.900000000000002 363.65000000000003 -15.25Q369.20000000000005 -8.6 376.05000000000007 -5.35Q382.90000000000003 -2.1 391.50000000000006 -2.1Q397.50000000000006 -2.1 401.85 -3.45Q406.20000000000005 -4.800000000000001 408.55000000000007 -7.15Q410.90000000000003 -9.5 410.90000000000003 -12.5Q410.90000000000003 -16.6 406.6 -19.150000000000002Q402.30000000000007 -21.700000000000003 395.45000000000005 -23.75Q388.6 -25.8 381.0 -28.450000000000003Q373.40000000000003 -31.1 366.55000000000007 -35.25Q359.70000000000005 -39.400000000000006 355.40000000000003 -46.050000000000004Q351.1 -52.7 351.1 -63.0Q351.1 -72.4 355.65000000000003 -79.30000000000001Q360.20000000000005 -86.2 367.95000000000005 -90.0Q375.70000000000005 -93.80000000000001 385.1 -93.80000000000001Q392.00000000000006 -93.80000000000001 397.50000000000006 -91.60000000000001Q403.00000000000006 -89.4 407.30000000000007 -85.80000000000001L420.20000000000005 -94.0H423.6V-66.0H419.70000000000005Q415.1 -72.5 410.40000000000003 -77.85Q405.70000000000005 -83.2 399.70000000000005 -86.4Q393.70000000000005 -89.60000000000001 385.20000000000005 -89.60000000000001Q381.00000000000006 -89.60000000000001 377.55000000000007 -88.25Q374.1 -86.9 372.05000000000007 -84.65Q370.00000000000006 -82.4 370.00000000000006 -79.60000000000001Q370.00000000000006 -75.4 374.4000000000001 -72.80000000000001Q378.80000000000007 -70.2 385.70000000000005 -68.1Q392.6 -66.0 400.40000000000003 -63.5Q408.20000000000005 -61.0 415.1 -57.05Q422.00000000000006 -53.1 426.4000000000001 -46.7Q430.80000000000007 -40.300000000000004 430.80000000000007 -30.400000000000002Q430.80000000000007 -18.5 424.85 -11.4Q418.90000000000003 -4.3 410.05000000000007 -1.15Q401.20000000000005 2.0 392.50000000000006 2.0Q384.30000000000007 2.0 377.6 -0.55Q370.90000000000003 -3.1 365.40000000000003 -8.0L352.6 2.0Z"/><path fill="#B8913A" d="M461.1 2.0Q454.5 2.0 449.05 -1.25Q443.6 -4.5 440.35 -9.95Q437.1 -15.4 437.1 -22.0Q437.1 -28.6 440.35 -34.05Q443.6 -39.5 449.05 -42.75Q454.5 -46.0 461.1 -46.0Q467.70000000000005 -46.0 473.15000000000003 -42.75Q478.6 -39.5 481.85 -34.05Q485.1 -28.6 485.1 -22.0Q485.1 -15.4 481.85 -9.95Q478.6 -4.5 473.15000000000003 -1.25Q467.70000000000005 2.0 461.1 2.0Z"/></g></svg>
